<svg xmlns="http://www.w3.org/2000/svg" version="1.1" xmlns:xlink="http://www.w3.org/1999/xlink" xmlns:svgjs="http://svgjs.dev/svgjs" width="1000" height="1000" viewBox="0 0 1000 1000"><rect width="1000" height="1000" fill="#ffffff"></rect><g transform="matrix(0.7,0,0,0.7,149.57575757575756,282.1265587044535)"><svg viewBox="0 0 396 247" data-background-color="#3788ff" preserveAspectRatio="xMidYMid meet" height="623" width="1000" xmlns="http://www.w3.org/2000/svg" xmlns:xlink="http://www.w3.org/1999/xlink"><g id="tight-bounds" transform="matrix(1,0,0,1,0.2400000000000091,-0.09999999999999432)"><svg viewBox="0 0 395.52 247.2" height="247.2" width="395.52"><g><svg></svg></g><g><svg viewBox="0 0 395.52 247.2" height="247.2" width="395.52"><g transform="matrix(1,0,0,1,118.65599999999999,85.99185937321087)"><svg viewBox="0 0 158.208 75.21628125357825" height="75.21628125357825" width="158.208"><g><svg viewBox="0 0 158.208 75.21628125357825" height="75.21628125357825" width="158.208"><g><svg viewBox="0 0 158.208 75.21628125357825" height="75.21628125357825" width="158.208"><g><svg viewBox="0 0 158.208 75.21628125357825" height="75.21628125357825" width="158.208"><g><svg viewBox="0 0 158.208 75.21628125357825" height="75.21628125357825" width="158.208"><g><svg viewBox="0 0 158.208 47.357015820149876" height="47.357015820149876" width="158.208"><g transform="matrix(1,0,0,1,0,0)"><svg width="158.208" viewBox="2.9000000953674316 -34.75 120.0999984741211 35.95000076293945" height="47.357015820149876" data-palette-color="#fffefe"><path d="M14.7 1.2Q11.15 1.2 9.03 1.03 6.9 0.85 5.65 0.4L5.65 0.4Q4.35-0.15 3.75-1.1 3.15-2.05 3.15-3.65L3.15-3.65 3.15-4.9Q3.2-5.4 3.2-6.4L3.2-6.4Q3.25-6.9 3.25-7.9L3.25-7.9Q3.3-8.4 3.3-8.95L3.3-8.95Q3.3-10.85 3.2-14.65L3.2-14.65 3.15-17.65Q2.9-21.2 2.9-26.25L2.9-26.25 2.9-27.95 2.9-29.5Q2.9-31.25 3.05-32.05L3.05-32.05Q3.15-32.3 3.18-32.5 3.2-32.7 3.2-32.8L3.2-32.8Q3.25-33.7 3.95-34.15L3.95-34.15Q4.35-34.3 5.05-34.3L5.05-34.3Q5.5-34.3 6.03-34.35 6.55-34.4 7.15-34.4L7.15-34.4Q7.95-34.4 9.65-34.5L9.65-34.5Q10.1-34.55 10.73-34.6 11.35-34.65 12.15-34.65L12.15-34.65Q13.75-34.75 14.4-34.75L14.4-34.75Q18.5-34.75 24-33.95L24-33.95Q27.85-33.5 30-33L30-33Q33.65-32.1 35.55-30.65L35.55-30.65Q38-28.55 38-25.3L38-25.3Q38-21.1 34.55-18.95L34.55-18.95Q34.3-18.8 34.1-18.73 33.9-18.65 33.7-18.55L33.7-18.55Q32.8-18.3 32.15-17.9L32.15-17.9Q32.05-17.85 31.9-17.73 31.75-17.6 31.65-17.4L31.65-17.4Q31.65-17.4 31.68-17.38 31.7-17.35 31.7-17.3L31.7-17.3Q31.7-17.3 31.8-17.2L31.8-17.2Q35.25-15.8 37.4-13.75L37.4-13.75Q39-11.95 39-10L39-10Q39-7.25 35.65-4.45L35.65-4.45Q32.35-1.85 27.5-0.5L27.5-0.5Q23.9 0.5 20.4 0.9L20.4 0.9Q17.75 1.2 14.7 1.2L14.7 1.2ZM20.65-22.15Q20.9-22.15 21.2-22.3L21.2-22.3Q22.5-22.75 23.65-23.4L23.65-23.4Q24.35-23.7 25.03-24.03 25.7-24.35 25.95-24.45L25.95-24.45 26.4-24.65 26.8-24.75Q27-24.75 27-25L27-25Q27-25.85 25.15-26.15L25.15-26.15Q24.05-26.4 22.4-26.4L22.4-26.4Q20.9-26.4 20.5-25.25L20.5-25.25Q20.25-24.65 20.25-23.75 20.25-22.85 20.25-22.65L20.25-22.65 20.25-22.4Q20.25-22.15 20.65-22.15L20.65-22.15ZM19.8-7.7L19.9-7.7Q19.9-7.7 19.93-7.7 19.95-7.7 19.95-7.75L19.95-7.75Q23.45-9.45 27.9-11.45L27.9-11.45Q28.1-11.65 28.15-11.65L28.15-11.65 28.4-11.8Q26.3-12.45 24.25-12.65L24.25-12.65Q21.65-12.75 19.95-12.75L19.95-12.75Q19.4-12.75 19.4-12.05L19.4-12.05 19.4-8.05Q19.4-7.7 19.8-7.7L19.8-7.7ZM62.9 1.2Q56.95 1.2 53.5 0.25L53.5 0.25Q48.7-1 46.2-4.4L46.2-4.4Q43.3-8.45 43.3-15.65L43.3-15.65Q43.3-20.8 44.45-24.4 45.6-28 48-30.3L48-30.3Q50.4-32.6 54.17-33.68 57.95-34.75 63.4-34.75L63.4-34.75Q67.65-34.75 71.4-33.45L71.4-33.45Q76-31.8 78.55-28.4L78.55-28.4Q81.7-24.35 81.7-17.75L81.7-17.75Q81.7-10.05 79.4-5.75L79.4-5.75Q77.1-1.8 72.75-0.15L72.75-0.15Q69.2 1.2 62.9 1.2L62.9 1.2ZM62.5-3.65Q63.1-3.65 63.45-4.4L63.45-4.4Q64.2-6 64.5-9.45L64.5-9.45Q64.8-12.6 64.8-15.4L64.8-15.4 64.8-17.4 64.8-18.65Q64.8-20.85 64.5-24L64.5-24Q64.2-27.4 63.45-29.15L63.45-29.15Q63.05-30 62.5-30L62.5-30Q61.4-30 60.9-27.9L60.9-27.9Q60.4-25 60.4-22.65L60.4-22.65Q60.25-20.65 60.25-16.4L60.25-16.4Q60.25-13.55 60.4-11.7L60.4-11.7Q60.4-9.35 60.9-6.25L60.9-6.25Q61.4-3.65 62.5-3.65L62.5-3.65ZM101.35 1.15Q97.45 1.15 94.35-0.65L94.35-0.65Q90.85-2.35 88.6-6.25L88.6-6.25Q86.1-10.65 86.1-16.65L86.1-16.65Q86.1-20.9 87.6-24.3 89.1-27.7 91.9-30.05L91.9-30.05Q94.65-32.35 98.35-33.55 102.05-34.75 106.4-34.75L106.4-34.75Q112.8-34.75 119.59-31.5L119.59-31.5 117.65-23Q117.3-23.1 116.82-23.25 116.34-23.4 115.75-23.55L115.75-23.55Q113-24.25 111.7-24.45L111.7-24.45Q110.5-24.65 109.75-24.65L109.75-24.65Q106.6-24.65 104.95-22.95L104.95-22.95Q103-21 103-16.4L103-16.4Q103-12.2 104.25-10.4L104.25-10.4Q105.3-8.7 107.35-8.7L107.35-8.7Q108.65-8.7 110.35-9.4L110.35-9.4Q110.35-10.2 110.25-11.8L110.25-11.8 110.2-12.9Q110.15-14.05 110.15-16.3L110.15-16.3 110.15-17.65Q110.15-18.1 110.3-18.28 110.45-18.45 110.85-18.45L110.85-18.45Q111-18.4 111.7-18.4L111.7-18.4 117-18.4Q119.34-18.4 120.09-18.45L120.09-18.45Q121.45-18.45 121.84-18.4L121.84-18.4Q122.5-18.25 122.72-17.93 122.95-17.6 122.95-16.9L122.95-16.9Q122.95-16.65 123-16.45L123-16.45 123-16 123-15.2 123-13.7 123-8.65 123-8.4Q122.95-8.2 122.9-7.95 122.85-7.7 122.85-7.4L122.85-7.4 122.85-7.15Q122.85-4 122.75-2.75L122.75-2.75Q122.65-0.7 122.4-0.15L122.4-0.15Q121.09-0.15 120.45-0.05L120.45-0.05 119.34 0 119.2 0Q118.75 0 118.7-0.05L118.7-0.05Q118.65-0.1 118.62-0.13 118.59-0.15 118.59-0.15L118.59-0.15 118.45-0.15Q118.4-0.1 118.37-0.05 118.34 0 118.34 0L118.34 0 113.35 0 113.1 0 112.6 0 112 0Q111.85 0.05 111.6 0.05L111.6 0.05Q111.4 0.05 111.25-0.25L111.25-0.25Q110.9-1.15 110.85-2.4L110.85-2.4Q110.75-3 110.65-4.15L110.65-4.15Q110.2-1.6 107.5-0.2L107.5-0.2Q105.05 1.15 101.35 1.15L101.35 1.15Z" opacity="1" transform="matrix(1,0,0,1,0,0)" fill="#000000" class="undefined-text-0" data-fill-palette-color="primary" id="text-0"></path></svg></g></svg></g><g transform="matrix(1,0,0,1,0,58.53687068690758)"><svg viewBox="0 0 158.208 16.67941056667066" height="16.67941056667066" width="158.208"><g transform="matrix(1,0,0,1,0,0)"><svg width="158.208" viewBox="3 -42.349998474121094 417.32000732421875 44" height="16.67941056667066" data-palette-color="#ffffff"><path d="M3-3.4Q3-4.7 3.53-5.7 4.05-6.7 5.25-6.65L5.25-6.65 5.75-6.65Q6.2-12.35 6.2-19.2L6.2-19.2 6.15-27.45 5.9-27.4Q5.15-27.2 4.58-27.93 4-28.65 4-29.65L4-29.65Q4-31.05 4.83-31.98 5.65-32.9 7.5-33.65L7.5-33.65Q9.65-34.55 12.1-34.98 14.55-35.4 16.8-35.4L16.8-35.4Q21-35.4 24.28-34.23 27.55-33.05 29.38-30.83 31.2-28.6 31.2-25.55L31.2-25.55Q31.2-22.85 29.43-20.48 27.65-18.1 24-17.35L24-17.35Q27.6-16.4 29.18-14.38 30.75-12.35 30.75-9.8L30.75-9.8Q30.75-6.6 29.03-4.35 27.3-2.1 24.35-0.95 21.4 0.2 17.75 0.2L17.75 0.2Q15.55 0.2 12.15-0.05L12.15-0.05Q11.25 1.65 8.5 1.65L8.5 1.65Q6.2 1.65 5.4-0.2L5.4-0.2 5.15-0.2Q4.05-0.2 3.53-1.1 3-2 3-3.4L3-3.4ZM12.8-6.15Q14.75-6 16.9-6L16.9-6Q19.95-6 21.75-7.05 23.55-8.1 23.55-10.35L23.55-10.35Q23.55-12.8 21.88-13.78 20.2-14.75 18.05-14.75L18.05-14.75Q16.1-14.75 15.25-15.28 14.4-15.8 14.4-17.5L14.4-17.5Q14.4-19.1 15.33-19.75 16.25-20.4 17.95-20.4L17.95-20.4Q24-20.4 24-24.95L24-24.95Q24-27.1 22.15-28.28 20.3-29.45 16.6-29.45L16.6-29.45Q15.25-29.45 13.35-29L13.35-29Q13.45-25.15 13.45-19.2L13.45-19.2Q13.45-15.95 13.33-13.58 13.2-11.2 12.8-6.15L12.8-6.15ZM60.4-5.55Q61.35-5.4 61.87-4.85 62.4-4.3 62.4-2.9L62.4-2.9Q62.4-1.7 61.77-0.85 61.15 0 60.1 0L60.1 0Q57.95 0 56.8-0.53 55.65-1.05 54.7-2.45L54.7-2.45Q53.6-0.8 51.7-0.13 49.8 0.55 47.25 0.55L47.25 0.55Q41.6 0.55 38.65-2.7 35.7-5.95 35.7-11.75L35.7-11.75Q35.7-15.55 37.25-18.5 38.8-21.45 41.57-23.1 44.35-24.75 47.95-24.75L47.95-24.75Q49.75-24.75 51.3-24.05 52.85-23.35 53.65-22.2L53.65-22.2 53.75-22.85Q53.85-23.55 54.55-24.03 55.25-24.5 56.75-24.5L56.75-24.5Q58.35-24.5 59.1-23.85 59.85-23.2 59.85-22.2L59.85-22.2Q59.85-21.85 59.8-21.65L59.8-21.65Q59.5-19.95 59.2-15.95L59.2-15.95Q59.05-14.1 59.05-11.2L59.05-11.2 59.05-8.7Q59.05-7.25 59.3-6.48 59.55-5.7 60.4-5.55L60.4-5.55ZM52.05-9Q52.1-11.05 52.1-15.35L52.1-15.35Q52.1-17.05 50.97-18.13 49.85-19.2 48.1-19.2L48.1-19.2Q45.85-19.2 44.4-17.13 42.95-15.05 42.95-11.8L42.95-11.8Q42.95-8.7 44.25-6.85 45.55-5 47.75-5L47.75-5Q49.8-5 50.9-6.03 52-7.05 52.05-9L52.05-9ZM76.95 0.45Q73.5 0.45 70.8-1.18 68.1-2.8 66.95-5.5L66.95-5.5Q66.65-6.25 66.65-6.75L66.65-6.75Q66.65-7.8 67.75-8.75 68.85-9.7 70.15-9.7L70.15-9.7Q70.9-9.7 71.35-9.38 71.8-9.05 72.05-8.78 72.3-8.5 72.35-8.4L72.35-8.4Q73.8-6.7 74.75-6 75.7-5.3 77.05-5.3L77.05-5.3Q78.3-5.3 79.2-5.83 80.1-6.35 80.1-7.3L80.1-7.3Q80.1-8.35 79.05-8.95 78-9.55 75.65-10.3L75.65-10.3Q73.05-11.2 71.42-12 69.8-12.8 68.57-14.38 67.35-15.95 67.35-18.4L67.35-18.4Q67.35-20.85 68.75-22.63 70.15-24.4 72.47-25.35 74.8-26.3 77.5-26.3L77.5-26.3Q80.4-26.3 82.52-25.23 84.65-24.15 85.75-22.38 86.85-20.6 86.85-18.6L86.85-18.6Q86.85-17.25 86.1-16.55 85.35-15.85 83.6-15.85L83.6-15.85Q82.05-15.85 81.47-16.35 80.9-16.85 80.75-17.75L80.75-17.75Q80.6-19 79.97-19.75 79.35-20.5 77.5-20.5L77.5-20.5Q76.1-20.5 75.32-20 74.55-19.5 74.55-18.6L74.55-18.6Q74.55-17.5 75.62-16.9 76.7-16.3 79.1-15.6L79.1-15.6Q81.65-14.8 83.3-14.03 84.95-13.25 86.15-11.73 87.35-10.2 87.35-7.7L87.35-7.7Q87.35-4.85 85.75-3 84.15-1.15 81.75-0.35 79.35 0.45 76.95 0.45L76.95 0.45ZM96.19 0.4Q94.69 0.4 93.64-0.35 92.59-1.1 92.59-2.2L92.59-2.2 92.59-34.1Q92.59-35.45 93.59-36.25 94.59-37.05 96.14-37.05L96.14-37.05Q97.74-37.05 98.77-36.25 99.79-35.45 99.79-34.1L99.79-34.1 99.69-20.1 102.64-22Q107.54-25.1 109.79-26.45L109.79-26.45Q110.89-27.1 112.04-26.95L112.04-26.95Q113.04-26.8 113.79-25.78 114.54-24.75 114.54-23.6L114.54-23.6Q114.54-22.8 114.14-22.35 113.74-21.9 112.79-21.3L112.79-21.3 101.19-14.15 113.24-4.95Q114.09-4.3 114.09-3L114.09-3Q114.09-1.7 113.12-0.85 112.14 0 110.84 0L110.84 0Q109.59 0 108.34-0.9L108.34-0.9Q106.59-2.2 103.39-5.05L103.39-5.05Q99.99-8 99.69-8.25L99.69-8.25 99.69-2.25Q99.69-1.1 98.69-0.35 97.69 0.4 96.19 0.4L96.19 0.4ZM132.44 0.5Q127.89 0.5 124.77-1.2 121.64-2.9 120.09-5.9 118.54-8.9 118.54-12.7L118.54-12.7Q118.54-16.5 120.32-19.48 122.09-22.45 125.17-24.1 128.24-25.75 132.04-25.75L132.04-25.75Q135.44-25.75 138.27-24.4 141.09-23.05 142.72-20.53 144.34-18 144.34-14.6L144.34-14.6Q144.34-12.45 143.57-11.53 142.79-10.6 140.94-10.6L140.94-10.6 124.79-10.6Q124.79-9.4 125.64-8.18 126.49-6.95 128.19-6.1 129.89-5.25 132.24-5.25L132.24-5.25Q134.34-5.25 135.54-5.88 136.74-6.5 138.04-7.75L138.04-7.75Q138.99-8.6 139.99-8.6L139.99-8.6Q141.14-8.6 142.14-7.73 143.14-6.85 143.14-5.75L143.14-5.75Q143.14-4.85 142.54-4L142.54-4Q141.49-2.35 138.99-0.93 136.49 0.5 132.44 0.5L132.44 0.5ZM124.79-15.1L137.74-15.1Q138.19-15.1 138.32-15.25 138.44-15.4 138.44-15.8L138.44-15.8Q138.44-17.75 136.57-19.05 134.69-20.35 131.94-20.35L131.94-20.35Q129.74-20.35 128.12-19.5 126.49-18.65 125.64-17.43 124.79-16.2 124.79-15.1L124.79-15.1ZM163.89-9.95Q165.54-9.95 166.29-9.3 167.04-8.65 167.04-7.2L167.04-7.2Q167.04-3.9 164.94-1.9 162.84 0.1 159.64 0.1L159.64 0.1Q155.29 0.1 153.29-3.43 151.29-6.95 151.29-14.6L151.29-14.6Q151.29-16.9 151.34-17.95L151.34-17.95Q150.99-18 150.19-18L150.19-18Q147.34-18.05 147.34-20.75L147.34-20.75Q147.34-22.15 148.06-22.85 148.79-23.55 150.64-23.5L150.64-23.5 151.74-23.45Q152.09-26.55 152.89-31.05L152.89-31.05Q153.09-32.25 154.01-32.88 154.94-33.5 156.39-33.5L156.39-33.5Q158.09-33.5 159.04-32.7 159.99-31.9 159.99-30.75L159.99-30.75 159.94-30.35 159.69-28.75Q159.09-24.65 158.89-23.15L158.89-23.15Q160.59-23.05 161.49-23.05L161.49-23.05Q164.04-23 164.04-20.4L164.04-20.4Q164.04-19.1 163.34-18.45 162.64-17.8 160.99-17.8L160.99-17.8 158.49-17.8Q158.44-16.8 158.44-14.6L158.44-14.6Q158.44-10.9 158.61-8.93 158.79-6.95 159.14-6.25 159.49-5.55 160.04-5.55L160.04-5.55Q160.74-5.55 160.94-6 161.14-6.45 161.14-7.6L161.14-7.6Q161.14-9.95 163.89-9.95L163.89-9.95ZM206.48-0.3Q201.23-0.3 197.28-2.38 193.33-4.45 191.18-8.28 189.03-12.1 189.03-17.3L189.03-17.3Q189.03-22.55 191.23-26.68 193.43-30.8 197.36-33.13 201.28-35.45 206.33-35.45L206.33-35.45Q211.53-35.45 215.71-33.02 219.88-30.6 222.26-26.4 224.63-22.2 224.63-17.1L224.63-17.1Q224.63-12.05 222.31-8.25 219.98-4.45 215.88-2.38 211.78-0.3 206.48-0.3L206.48-0.3ZM206.78-6.8Q209.78-6.8 212.18-8 214.58-9.2 215.98-11.6 217.38-14 217.38-17.4L217.38-17.4Q217.38-20.75 216.06-23.38 214.73-26 212.28-27.48 209.83-28.95 206.63-28.95L206.63-28.95Q203.43-28.95 201.11-27.48 198.78-26 197.53-23.43 196.28-20.85 196.28-17.55L196.28-17.55Q196.28-12.35 199.21-9.58 202.13-6.8 206.78-6.8L206.78-6.8ZM241.03-37Q244.93-37 247.06-34.88 249.18-32.75 249.18-29.3L249.18-29.3Q249.18-27.25 248.33-26.33 247.48-25.4 245.63-25.4L245.63-25.4Q242.28-25.4 242.03-28.45L242.03-28.45Q241.98-28.75 241.98-29.55 241.98-30.35 241.71-30.8 241.43-31.25 240.78-31.25L240.78-31.25Q240.23-31.25 239.98-30.85 239.73-30.45 239.63-29.45 239.53-28.45 239.48-26.2L239.48-26.2Q239.43-24.7 239.43-21.4L239.43-21.4 242.13-21.4Q244.53-21.4 244.53-18.7L244.53-18.7Q244.53-16.05 242.03-16.05L242.03-16.05Q240.38-16.05 239.48-16L239.48-16Q239.53-10.55 239.78-2.95L239.78-2.95Q239.83-1.6 238.83-0.8 237.83 0 236.23 0L236.23 0Q234.68 0 233.68-0.78 232.68-1.55 232.63-2.85L232.63-2.85Q232.43-8.9 232.38-15.85L232.38-15.85 231.23-15.85Q229.53-15.85 228.83-16.55 228.13-17.25 228.13-18.65L228.13-18.65Q228.13-19.95 228.73-20.68 229.33-21.4 230.93-21.4L230.93-21.4 232.28-21.4 232.23-26.6Q232.23-31.65 234.53-34.33 236.83-37 241.03-37L241.03-37ZM303.53-16.2Q303.53-14.75 302.65-13.85 301.78-12.95 300.18-12.9L300.18-12.9Q299.63-6.75 296.15-3.35 292.68 0.05 286.63 0.05L286.63 0.05Q281.63 0.05 277.6-2.23 273.58-4.5 271.3-8.5 269.03-12.5 269.03-17.4L269.03-17.4Q269.03-22.25 271.2-26.18 273.38-30.1 277.13-32.35 280.88-34.6 285.38-34.6L285.38-34.6Q289.08-34.6 291.55-33.18 294.03-31.75 295.08-29.95L295.08-29.95 295.08-31.1Q295.08-32.1 295.9-32.8 296.73-33.5 298.28-33.5L298.28-33.5Q299.88-33.5 300.7-32.77 301.53-32.05 301.58-30.95L301.58-30.95Q301.73-26.8 300.88-25.15L300.88-25.15Q300.43-24.35 299.55-23.95 298.68-23.55 297.58-23.55L297.58-23.55Q296.58-23.55 295.83-23.93 295.08-24.3 293.88-25.35L293.88-25.35Q292.53-26.55 291.08-27.3 289.63-28.05 287.13-28.05L287.13-28.05Q284.03-28.05 281.55-26.73 279.08-25.4 277.68-22.98 276.28-20.55 276.28-17.4L276.28-17.4Q276.28-14.25 277.68-11.75 279.08-9.25 281.43-7.85 283.78-6.45 286.43-6.45L286.43-6.45Q289.23-6.45 290.98-8.08 292.73-9.7 293.18-12.95L293.18-12.95 288.13-13.05Q286.38-13.1 285.55-13.95 284.73-14.8 284.73-16.2L284.73-16.2Q284.73-17.75 285.68-18.7 286.63-19.65 288.28-19.6L288.28-19.6 299.68-19.35Q301.58-19.3 302.55-18.5 303.53-17.7 303.53-16.2L303.53-16.2ZM320.32 0.15Q313.97 0.15 310.25-3.18 306.52-6.5 306.52-12.5L306.52-12.5Q306.52-16.4 308.17-19.45 309.82-22.5 312.85-24.2 315.87-25.9 319.97-25.9L319.97-25.9Q324.12-25.9 327.27-24.15 330.42-22.4 332.15-19.28 333.87-16.15 333.87-12.15L333.87-12.15Q333.87-6.3 330.22-3.08 326.57 0.15 320.32 0.15L320.32 0.15ZM320.22-5.4Q323.27-5.4 324.95-7.13 326.62-8.85 326.62-12.25L326.62-12.25Q326.62-15.6 325-17.98 323.37-20.35 320.22-20.35L320.22-20.35Q317.27-20.35 315.52-18.2 313.77-16.05 313.77-12.45L313.77-12.45Q313.77-8.95 315.47-7.18 317.17-5.4 320.22-5.4L320.22-5.4ZM350.67 0.15Q344.32 0.15 340.6-3.18 336.87-6.5 336.87-12.5L336.87-12.5Q336.87-16.4 338.52-19.45 340.17-22.5 343.2-24.2 346.22-25.9 350.32-25.9L350.32-25.9Q354.47-25.9 357.62-24.15 360.77-22.4 362.5-19.28 364.22-16.15 364.22-12.15L364.22-12.15Q364.22-6.3 360.57-3.08 356.92 0.15 350.67 0.15L350.67 0.15ZM350.57-5.4Q353.62-5.4 355.3-7.13 356.97-8.85 356.97-12.25L356.97-12.25Q356.97-15.6 355.35-17.98 353.72-20.35 350.57-20.35L350.57-20.35Q347.62-20.35 345.87-18.2 344.12-16.05 344.12-12.45L344.12-12.45Q344.12-8.95 345.82-7.18 347.52-5.4 350.57-5.4L350.57-5.4ZM381.17 0.5Q377.22 0.5 374.17-1.13 371.12-2.75 369.42-5.75 367.72-8.75 367.72-12.7L367.72-12.7Q367.72-16.65 369.37-19.6 371.02-22.55 374.02-24.15 377.02-25.75 380.97-25.75L380.97-25.75Q384.62-25.75 386.97-24.2L386.97-24.2 387.52-36.2 387.67-39.7Q387.72-40.9 388.72-41.63 389.72-42.35 391.22-42.35L391.22-42.35Q392.87-42.35 393.94-41.48 395.02-40.6 394.87-39.3L394.87-39.3Q394.57-36.8 394.29-28.23 394.02-19.65 394.02-13.1L394.02-13.1Q394.02-7.55 394.27-6.4L394.27-6.4Q394.52-5.45 395.57-3.85L395.57-3.85Q395.87-3.4 395.87-2.8L395.87-2.8Q395.87-1.55 394.69-0.53 393.52 0.5 392.12 0.5L392.12 0.5Q391.47 0.5 390.87 0.33 390.27 0.15 389.92-0.15L389.92-0.15Q388.42-1.3 387.72-2.95L387.72-2.95Q385.02 0.5 381.17 0.5L381.17 0.5ZM381.22-5.2Q382.72-5.2 384.02-6 385.32-6.8 386.09-8.08 386.87-9.35 386.87-10.7L386.87-10.7 386.87-18.15Q386.32-18.85 384.59-19.53 382.87-20.2 381.32-20.2L381.32-20.2Q378.32-20.2 376.64-18.18 374.97-16.15 374.97-12.6L374.97-12.6Q374.97-9.3 376.74-7.25 378.52-5.2 381.22-5.2L381.22-5.2ZM409.92 0.45Q406.47 0.45 403.77-1.18 401.07-2.8 399.92-5.5L399.92-5.5Q399.62-6.25 399.62-6.75L399.62-6.75Q399.62-7.8 400.72-8.75 401.82-9.7 403.12-9.7L403.12-9.7Q403.87-9.7 404.32-9.38 404.77-9.05 405.02-8.78 405.27-8.5 405.32-8.4L405.32-8.4Q406.77-6.7 407.72-6 408.67-5.3 410.02-5.3L410.02-5.3Q411.27-5.3 412.17-5.83 413.07-6.35 413.07-7.3L413.07-7.3Q413.07-8.35 412.02-8.95 410.97-9.55 408.62-10.3L408.62-10.3Q406.02-11.2 404.39-12 402.77-12.8 401.54-14.38 400.32-15.95 400.32-18.4L400.32-18.4Q400.32-20.85 401.72-22.63 403.12-24.4 405.44-25.35 407.77-26.3 410.47-26.3L410.47-26.3Q413.37-26.3 415.49-25.23 417.62-24.15 418.72-22.38 419.82-20.6 419.82-18.6L419.82-18.6Q419.82-17.25 419.07-16.55 418.32-15.85 416.57-15.85L416.57-15.85Q415.02-15.85 414.44-16.35 413.87-16.85 413.72-17.75L413.72-17.75Q413.57-19 412.94-19.75 412.32-20.5 410.47-20.5L410.47-20.5Q409.07-20.5 408.29-20 407.52-19.5 407.52-18.6L407.52-18.6Q407.52-17.5 408.59-16.9 409.67-16.3 412.07-15.6L412.07-15.6Q414.62-14.8 416.27-14.03 417.92-13.25 419.12-11.73 420.32-10.2 420.32-7.7L420.32-7.7Q420.32-4.85 418.72-3 417.12-1.15 414.72-0.35 412.32 0.45 409.92 0.45L409.92 0.45Z" opacity="1" transform="matrix(1,0,0,1,0,0)" fill="#000000" class="undefined-text-1" data-fill-palette-color="secondary" id="text-1"></path></svg></g></svg></g></svg></g></svg></g></svg></g></svg></g></svg></g><g mask="url(#38926792-310a-4ce0-a986-713fa09bbe9c)"><g transform="matrix(2.5159037872825376, 0, 0, 2.5159037872825376, 92.74859024361298, 1)"><svg xmlns="http://www.w3.org/2000/svg" xmlns:xlink="http://www.w3.org/1999/xlink" version="1.1" x="0" y="0" viewBox="8.260810852050781 1.2699966430664062 83.47808074951172 97.46000671386719" enable-background="new 0 0 100 100" xml:space="preserve" height="97.46000671386719" width="83.47808074951172" class="icon-none" data-fill-palette-color="accent" id="none"><g fill="#f9f9f9" data-fill-palette-color="accent"><rect x="76.023" y="73.375" width="13.836" height="9.322" fill="#000000" data-fill-palette-color="accent"></rect><rect x="80.144" y="86.032" width="9.323" height="12.698" fill="#000000" data-fill-palette-color="accent"></rect><rect x="80.144" y="56.222" width="9.323" height="13.641" fill="#000000" data-fill-palette-color="accent"></rect><polygon points="58.649,73.375 58.649,82.697 50.001,82.697 41.352,82.697 41.352,73.375 50.001,73.375  " fill="#000000" data-fill-palette-color="accent"></polygon><polygon points="55.273,86.032 55.273,98.73 50.001,98.73 44.729,98.73 44.729,86.032 50.001,86.032  " fill="#000000" data-fill-palette-color="accent"></polygon><polygon points="55.273,56.222 55.273,69.863 50.001,69.863 44.729,69.863 44.729,56.222 50.001,56.222  " fill="#000000" data-fill-palette-color="accent"></polygon><rect x="59.202" y="89.232" width="16.821" height="9.323" fill="#000000" data-fill-palette-color="accent"></rect><rect x="59.202" y="56.792" width="16.821" height="9.321" fill="#000000" data-fill-palette-color="accent"></rect><rect x="62.58" y="69.077" width="9.321" height="16.82" fill="#000000" data-fill-palette-color="accent"></rect><path d="M12.615 52.43c-1.193-4.721-4.994-23.124 4.348-35.768C23.276 8.12 34.36 3.788 49.911 3.788c0.029 0 0.058 0.002 0.09 0.002 0.029 0 0.06-0.002 0.09-0.002 15.549 0 26.634 4.332 32.946 12.875 9.344 12.644 5.54 31.047 4.349 35.768h2.606c1.443-5.878 4.799-24.086-4.921-37.252C78.26 5.949 66.49 1.27 50.091 1.27c-0.03 0-0.061 0.001-0.09 0.001-0.032 0-0.061-0.001-0.09-0.001-16.4 0-28.17 4.679-34.982 13.908C5.21 28.344 8.563 46.552 10.009 52.43H12.615z" fill="#000000" data-fill-palette-color="accent"></path><rect x="10.141" y="73.375" width="13.837" height="9.322" fill="#000000" data-fill-palette-color="accent"></rect><rect x="10.534" y="86.032" width="9.322" height="12.698" fill="#000000" data-fill-palette-color="accent"></rect><rect x="10.534" y="56.222" width="9.322" height="13.641" fill="#000000" data-fill-palette-color="accent"></rect><rect x="23.978" y="89.232" width="16.82" height="9.323" fill="#000000" data-fill-palette-color="accent"></rect><rect x="23.978" y="56.792" width="16.82" height="9.321" fill="#000000" data-fill-palette-color="accent"></rect><rect x="28.1" y="69.077" width="9.319" height="16.82" fill="#000000" data-fill-palette-color="accent"></rect></g></svg></g></g></svg></g><defs><mask id="4f5ffc7e-9565-480c-85eb-94fdfb01ab37"><rect width="640" height="400" fill="white"></rect><rect width="348.05760000000004" height="48.49425965582999" fill="black" x="145.97119999999998" y="175.752870172085" id="transform-me" transform="matrix(1,0,0,1,-122.24000000000001,-76.4)"></rect></mask><mask id="df63c3d8-ae56-49c8-96e9-2f5c0d280fb2"><rect width="640" height="400" fill="white"></rect><rect width="348.05760000000004" height="48.49425965582999" fill="black" x="145.97119999999998" y="175.752870172085" id="transform-me" transform="matrix(1,0,0,1,-122.24000000000001,-76.4)"></rect></mask><mask id="315d284c-ecc9-42b8-9ab7-c8456ffdd044"><rect width="640" height="400" fill="white"></rect><rect width="348.05760000000004" height="48.49425965582999" fill="black" x="145.97119999999998" y="175.752870172085" id="transform-me" transform="matrix(1,0,0,1,-122.24000000000001,-76.4)"></rect></mask><mask id="30ea8abc-4cb1-4e5e-8895-90ebd0656179"><rect width="640" height="400" fill="white"></rect><rect width="348.05760000000004" height="48.49425965582999" fill="black" x="145.97119999999998" y="175.752870172085" id="transform-me" transform="matrix(1,0,0,1,-122.24000000000001,-76.4)"></rect></mask><mask id="3a692aac-109d-47c0-9a0a-4d68b25e39d2"><rect width="640" height="400" fill="white"></rect><rect width="348.05760000000004" height="48.49425965582999" fill="black" x="145.97119999999998" y="175.752870172085" id="transform-me" transform="matrix(1,0,0,1,-122.24000000000001,-76.4)"></rect></mask><mask id="89563026-bb11-4271-a252-27ee5497c470"><rect width="640" height="400" fill="white"></rect><rect width="348.05760000000004" height="48.49425965582999" fill="black" x="145.97119999999998" y="175.752870172085" id="transform-me" transform="matrix(1,0,0,1,-122.24000000000001,-76.4)"></rect></mask><mask id="01f1e3d0-e8df-42e3-8c0f-6403abf7878d"><rect width="640" height="400" fill="white"></rect><rect width="348.05760000000004" height="48.49425965582999" fill="black" x="145.97119999999998" y="175.752870172085" id="transform-me" transform="matrix(1,0,0,1,-122.24000000000001,-76.4)"></rect></mask><mask id="dc8939b9-9fb9-4110-8d6c-7b3181acace8"><rect width="640" height="400" fill="white"></rect><rect width="348.05760000000004" height="48.49425965582999" fill="black" x="145.97119999999998" y="175.752870172085" id="transform-me" transform="matrix(1,0,0,1,-122.24000000000001,-76.4)"></rect></mask><mask id="b8c47519-a991-4371-9c7b-f46e3dc504a9"><rect width="640" height="400" fill="white"></rect><rect width="348.05760000000004" height="48.49425965582999" fill="black" x="145.97119999999998" y="175.752870172085" id="transform-me" transform="matrix(1,0,0,1,-122.24000000000001,-76.4)"></rect></mask><mask id="32f37ccb-9d6a-455f-98bf-50c5670609f0"><rect width="640" height="400" fill="white"></rect><rect width="348.05760000000004" height="48.49425965582999" fill="black" x="145.97119999999998" y="175.752870172085" id="transform-me" transform="matrix(1,0,0,1,-122.24000000000001,-76.4)"></rect></mask><mask id="9133244f-7a12-4dfc-8690-6d85dc3dff48"><rect width="640" height="400" fill="white"></rect><rect width="348.05760000000004" height="48.49425965582999" fill="black" x="145.97119999999998" y="175.752870172085" id="transform-me" transform="matrix(1,0,0,1,-122.24000000000001,-76.4)"></rect></mask><mask id="700a2bec-469e-4443-93c2-bb8838b8e455"><rect width="640" height="400" fill="white"></rect><rect width="348.05760000000004" height="48.49425965582999" fill="black" x="145.97119999999998" y="175.752870172085" id="transform-me" transform="matrix(1,0,0,1,-122.24000000000001,-76.4)"></rect></mask><mask id="5cc24ee8-e6bf-4294-85a5-b25f611cbcfa"><rect width="640" height="400" fill="white"></rect><rect width="348.05760000000004" height="48.49425965582999" fill="black" x="145.97119999999998" y="175.752870172085" id="transform-me" transform="matrix(1,0,0,1,-122.24000000000001,-76.4)"></rect></mask><mask id="aef989d9-0cec-4645-a265-eb04a33e411e"><rect width="640" height="400" fill="white"></rect><rect width="348.05760000000004" height="48.49425965582999" fill="black" x="145.97119999999998" y="175.752870172085" id="transform-me" transform="matrix(1,0,0,1,-122.24000000000001,-76.4)"></rect></mask><mask id="a42cdd85-bdd0-4f6b-ad7f-28ea193e480e"><rect width="640" height="400" fill="white"></rect><rect width="348.05760000000004" height="48.49425965582999" fill="black" x="145.97119999999998" y="175.752870172085" id="transform-me" transform="matrix(1,0,0,1,-122.24000000000001,-76.4)"></rect></mask><mask id="3aad3625-0f9c-4215-bf2b-eaf8e109b8fd"><rect width="640" height="400" fill="white"></rect><rect width="348.05760000000004" height="48.49425965582999" fill="black" x="145.97119999999998" y="175.752870172085" id="transform-me" transform="matrix(1,0,0,1,-122.24000000000001,-76.4)"></rect></mask><mask id="9237711e-ba60-4021-9ba7-dc5635655b28"><rect width="640" height="400" fill="white"></rect><rect width="348.05760000000004" height="48.49425965582999" fill="black" x="145.97119999999998" y="175.752870172085" id="transform-me" transform="matrix(1,0,0,1,-122.24000000000001,-76.4)"></rect></mask><mask id="d0840e70-d41b-458b-b9c9-267cbbc91e38"><rect width="640" height="400" fill="white"></rect><rect width="348.05760000000004" height="48.49425965582999" fill="black" x="145.97119999999998" y="175.752870172085" id="transform-me" transform="matrix(1,0,0,1,-122.24000000000001,-76.4)"></rect></mask><mask id="9614fe86-eef7-4cf5-8123-eb20525dcc16"><rect width="640" height="400" fill="white"></rect><rect width="348.05760000000004" height="48.49425965582999" fill="black" x="145.97119999999998" y="175.752870172085" id="transform-me" transform="matrix(1,0,0,1,-122.24000000000001,-76.4)"></rect></mask><mask id="fcdd3344-23c1-4573-8a32-93cdceab5a49"><rect width="640" height="400" fill="white"></rect><rect width="348.05760000000004" height="48.49425965582999" fill="black" x="145.97119999999998" y="175.752870172085" id="transform-me" transform="matrix(1,0,0,1,-122.24000000000001,-76.4)"></rect></mask><mask id="17abac9f-68ef-447a-a6d8-40144c517bf9"><rect width="640" height="400" fill="white"></rect><rect width="348.05760000000004" height="48.49425965582999" fill="black" x="145.97119999999998" y="175.752870172085" id="transform-me" transform="matrix(1,0,0,1,-122.24000000000001,-76.4)"></rect></mask><mask id="426744ed-f211-4b84-ab46-bd5d16fbebca"><rect width="640" height="400" fill="white"></rect><rect width="348.05760000000004" height="48.49425965582999" fill="black" x="145.97119999999998" y="175.752870172085" id="transform-me" transform="matrix(1,0,0,1,-122.24000000000001,-76.4)"></rect></mask><mask id="f87895ad-eec0-4bc3-b58e-a9a6790fe126"><rect width="640" height="400" fill="white"></rect><rect width="348.05760000000004" height="48.49425965582999" fill="black" x="145.97119999999998" y="175.752870172085" id="transform-me" transform="matrix(1,0,0,1,-122.24000000000001,-76.4)"></rect></mask><mask id="5e8fa6e6-7ecb-4463-b12b-15fc8877a20c"><rect width="640" height="400" fill="white"></rect><rect width="348.05760000000004" height="48.49425965582999" fill="black" x="145.97119999999998" y="175.752870172085" id="transform-me" transform="matrix(1,0,0,1,-122.24000000000001,-76.4)"></rect></mask><mask id="3d9c8ac7-a0be-447c-a075-949b0af995a2"><rect width="640" height="400" fill="white"></rect><rect width="348.05760000000004" height="48.49425965582999" fill="black" x="145.97119999999998" y="175.752870172085" id="transform-me" transform="matrix(1,0,0,1,-122.24000000000001,-76.4)"></rect></mask><mask id="feb9e9a4-cd5c-4798-b620-9c80c8eec079"><rect width="640" height="400" fill="white"></rect><rect width="348.05760000000004" height="48.49425965582999" fill="black" x="145.97119999999998" y="175.752870172085" id="transform-me" transform="matrix(1,0,0,1,-122.24000000000001,-76.4)"></rect></mask><mask id="a8653046-f201-4d11-98cc-e82403c8f325"><rect width="640" height="400" fill="white"></rect><rect width="348.05760000000004" height="48.49425965582999" fill="black" x="145.97119999999998" y="175.752870172085" id="transform-me" transform="matrix(1,0,0,1,-122.24000000000001,-76.4)"></rect></mask><mask id="9584ca7b-e18d-4325-abf2-c4f7c4aa00eb"><rect width="640" height="400" fill="white"></rect><rect width="348.05760000000004" height="48.49425965582999" fill="black" x="145.97119999999998" y="175.752870172085" id="transform-me" transform="matrix(1,0,0,1,-122.24000000000001,-76.4)"></rect></mask><mask id="f2e45d4e-d0bc-45bf-8522-a57b68fe3e2e"><rect width="640" height="400" fill="white"></rect><rect width="348.05760000000004" height="48.49425965582999" fill="black" x="145.97119999999998" y="175.752870172085" id="transform-me" transform="matrix(1,0,0,1,-122.24000000000001,-76.4)"></rect></mask><mask id="a3ed0fbc-fb02-4fa5-b8ee-02fc7c4a946d"><rect width="640" height="400" fill="white"></rect><rect width="348.05760000000004" height="48.49425965582999" fill="black" x="145.97119999999998" y="175.752870172085" id="transform-me" transform="matrix(1,0,0,1,-122.24000000000001,-76.4)"></rect></mask><mask id="0a724cbb-c249-498f-898d-e219f1e8a579"><rect width="640" height="400" fill="white"></rect><rect width="348.05760000000004" height="48.49425965582999" fill="black" x="145.97119999999998" y="175.752870172085" id="transform-me" transform="matrix(1,0,0,1,-122.24000000000001,-76.4)"></rect></mask><mask id="d70ff094-aeb1-4618-b7ae-ec8c2c4491e5"><rect width="640" height="400" fill="white"></rect><rect width="348.05760000000004" height="48.49425965582999" fill="black" x="145.97119999999998" y="175.752870172085" id="transform-me" transform="matrix(1,0,0,1,-122.24000000000001,-76.4)"></rect></mask><mask id="865f9dd7-fe63-44e3-aeb9-fea027552453"><rect width="640" height="400" fill="white"></rect><rect width="348.05760000000004" height="48.49425965582999" fill="black" x="145.97119999999998" y="175.752870172085" id="transform-me" transform="matrix(1,0,0,1,-122.24000000000001,-76.4)"></rect></mask><mask id="ce5e860e-d193-4275-9124-a1e75e54639d"><rect width="640" height="400" fill="white"></rect><rect width="348.05760000000004" height="48.49425965582999" fill="black" x="145.97119999999998" y="175.752870172085" id="transform-me" transform="matrix(1,0,0,1,-122.24000000000001,-76.4)"></rect></mask><mask id="4bb58f28-4bac-4f60-90c0-e62b8496606e"><rect width="640" height="400" fill="white"></rect><rect width="348.05760000000004" height="48.49425965582999" fill="black" x="145.97119999999998" y="175.752870172085" id="transform-me" transform="matrix(1,0,0,1,-122.24000000000001,-76.4)"></rect></mask><mask id="c8146e6e-8f5b-4138-99a1-69a01939c0f2"><rect width="640" height="400" fill="white"></rect><rect width="348.05760000000004" height="48.49425965582999" fill="black" x="145.97119999999998" y="175.752870172085" id="transform-me" transform="matrix(1,0,0,1,-122.24000000000001,-76.4)"></rect></mask><mask id="e90bdb85-15d4-4d67-ab2b-33b8c3b50fae"><rect width="640" height="400" fill="white"></rect><rect width="348.05760000000004" height="48.49425965582999" fill="black" x="145.97119999999998" y="175.752870172085" id="transform-me" transform="matrix(1,0,0,1,-122.24000000000001,-76.4)"></rect></mask><mask id="b5659370-29b3-4f94-b770-18732a6519c7"><rect width="640" height="400" fill="white"></rect><rect width="348.05760000000004" height="48.49425965582999" fill="black" x="145.97119999999998" y="175.752870172085" id="transform-me" transform="matrix(1,0,0,1,-122.24000000000001,-76.4)"></rect></mask><mask id="c7c3eaf1-797b-4a92-b342-5c5f4da4f98d"><rect width="640" height="400" fill="white"></rect><rect width="348.05760000000004" height="48.49425965582999" fill="black" x="145.97119999999998" y="175.752870172085" id="transform-me" transform="matrix(1,0,0,1,-122.24000000000001,-76.4)"></rect></mask><mask id="ac0ab495-f58c-4901-846f-0fc4d8923991"><rect width="640" height="400" fill="white"></rect><rect width="348.05760000000004" height="48.49425965582999" fill="black" x="145.97119999999998" y="175.752870172085" id="transform-me" transform="matrix(1,0,0,1,-122.24000000000001,-76.4)"></rect></mask><mask id="27f0ce89-c072-4057-9b4a-65eb030e8e50"><rect width="640" height="400" fill="white"></rect><rect width="348.05760000000004" height="48.49425965582999" fill="black" x="145.97119999999998" y="175.752870172085" id="transform-me" transform="matrix(1,0,0,1,-122.24000000000001,-76.4)"></rect></mask><mask id="bc7ead60-633d-4974-a2d7-f6f32faba366"><rect width="640" height="400" fill="white"></rect><rect width="348.05760000000004" height="48.49425965582999" fill="black" x="145.97119999999998" y="175.752870172085" id="transform-me" transform="matrix(1,0,0,1,-122.24000000000001,-76.4)"></rect></mask><mask id="a42098b4-d9fa-4732-9cf4-74c07fe46b5f"><rect width="640" height="400" fill="white"></rect><rect width="348.05760000000004" height="48.49425965582999" fill="black" x="145.97119999999998" y="175.752870172085" id="transform-me" transform="matrix(1,0,0,1,-122.24000000000001,-76.4)"></rect></mask><mask id="ec15f020-4247-4450-9712-94cf5916104b"><rect width="640" height="400" fill="white"></rect><rect width="348.05760000000004" height="48.49425965582999" fill="black" x="145.97119999999998" y="175.752870172085" id="transform-me" transform="matrix(1,0,0,1,-122.24000000000001,-76.4)"></rect></mask><mask id="627912c4-8107-4fd1-89c7-d146c1c2ccf4"><rect width="640" height="400" fill="white"></rect><rect width="348.05760000000004" height="48.49425965582999" fill="black" x="145.97119999999998" y="175.752870172085" id="transform-me" transform="matrix(1,0,0,1,-122.24000000000001,-76.4)"></rect></mask><mask id="e327a471-bbc8-47a6-93e3-b4ae34779615"><rect width="640" height="400" fill="white"></rect><rect width="348.05760000000004" height="48.49425965582999" fill="black" x="145.97119999999998" y="175.752870172085" id="transform-me" transform="matrix(1,0,0,1,-122.24000000000001,-76.4)"></rect></mask><mask id="392edb54-0e09-413b-a436-b16e35f1b743"><rect width="640" height="400" fill="white"></rect><rect width="348.05760000000004" height="48.49425965582999" fill="black" x="145.97119999999998" y="175.752870172085" id="transform-me" transform="matrix(1,0,0,1,-122.24000000000001,-76.4)"></rect></mask><mask id="c75fccf0-b9f8-40b3-85a6-a51bb559cd7f"><rect width="640" height="400" fill="white"></rect><rect width="348.05760000000004" height="48.49425965582999" fill="black" x="145.97119999999998" y="175.752870172085" id="transform-me" transform="matrix(1,0,0,1,-122.24000000000001,-76.4)"></rect></mask><mask id="2567fed0-11d4-4f1e-b0a3-a270196bba3d"><rect width="640" height="400" fill="white"></rect><rect width="348.05760000000004" height="48.49425965582999" fill="black" x="145.97119999999998" y="175.752870172085" id="transform-me" transform="matrix(1,0,0,1,-122.24000000000001,-76.4)"></rect></mask><mask id="4a772e4f-fa63-4d5d-8b90-91b197807e23"><rect width="640" height="400" fill="white"></rect><rect width="348.05760000000004" height="48.49425965582999" fill="black" x="145.97119999999998" y="175.752870172085" id="transform-me" transform="matrix(1,0,0,1,-122.24000000000001,-76.4)"></rect></mask><mask id="662696e0-c613-4ca9-a9ee-aea1dc28ea46"><rect width="640" height="400" fill="white"></rect><rect width="348.05760000000004" height="48.49425965582999" fill="black" x="145.97119999999998" y="175.752870172085" id="transform-me" transform="matrix(1,0,0,1,-122.24000000000001,-76.4)"></rect></mask><mask id="5f3dc0a9-b966-4bfc-b614-da1e058c9499"><rect width="640" height="400" fill="white"></rect><rect width="348.05760000000004" height="48.49425965582999" fill="black" x="145.97119999999998" y="175.752870172085" id="transform-me" transform="matrix(1,0,0,1,-122.24000000000001,-76.4)"></rect></mask><mask id="7fc30419-e9de-47eb-8d5f-2ec7a9d5f2d4"><rect width="640" height="400" fill="white"></rect><rect width="348.05760000000004" height="48.49425965582999" fill="black" x="145.97119999999998" y="175.752870172085" id="transform-me" transform="matrix(1,0,0,1,-122.24000000000001,-76.4)"></rect></mask><mask id="046bf6a6-8464-4c77-a3e6-ee4d14642b18"><rect width="640" height="400" fill="white"></rect><rect width="348.05760000000004" height="48.49425965582999" fill="black" x="145.97119999999998" y="175.752870172085" id="transform-me" transform="matrix(1,0,0,1,-122.24000000000001,-76.4)"></rect></mask><mask id="b40a909f-7f40-4de3-afcb-9b96620f6843"><rect width="640" height="400" fill="white"></rect><rect width="348.05760000000004" height="48.49425965582999" fill="black" x="145.97119999999998" y="175.752870172085" id="transform-me" transform="matrix(1,0,0,1,-122.24000000000001,-76.4)"></rect></mask><mask id="67e003f3-a97d-4c1d-bfb4-95584b1d5447"><rect width="640" height="400" fill="white"></rect><rect width="348.05760000000004" height="48.49425965582999" fill="black" x="145.97119999999998" y="175.752870172085" id="transform-me" transform="matrix(1,0,0,1,-122.24000000000001,-76.4)"></rect></mask><mask id="e941f1db-7fc2-4161-9c2a-ab96f6e52ef4"><rect width="640" height="400" fill="white"></rect><rect width="348.05760000000004" height="48.49425965582999" fill="black" x="145.97119999999998" y="175.752870172085" id="transform-me" transform="matrix(1,0,0,1,-122.24000000000001,-76.4)"></rect></mask><mask id="62c23b95-6060-4e0d-b126-1ca06266e96d"><rect width="640" height="400" fill="white"></rect><rect width="348.05760000000004" height="48.49425965582999" fill="black" x="145.97119999999998" y="175.752870172085" id="transform-me" transform="matrix(1,0,0,1,-122.24000000000001,-76.4)"></rect></mask><mask id="eb14eaec-ce7e-40a7-8b8e-1197bc8dc7e3"><rect width="640" height="400" fill="white"></rect><rect width="348.05760000000004" height="48.49425965582999" fill="black" x="145.97119999999998" y="175.752870172085" id="transform-me" transform="matrix(1,0,0,1,-122.24000000000001,-76.4)"></rect></mask><mask id="13122138-aeca-4c7c-9adf-54aa8425156d"><rect width="640" height="400" fill="white"></rect><rect width="348.05760000000004" height="48.49425965582999" fill="black" x="145.97119999999998" y="175.752870172085" id="transform-me" transform="matrix(1,0,0,1,-122.24000000000001,-76.4)"></rect></mask><mask id="671f4ea3-8500-40d4-a780-867855167573"><rect width="640" height="400" fill="white"></rect><rect width="348.05760000000004" height="48.49425965582999" fill="black" x="145.97119999999998" y="175.752870172085" id="transform-me" transform="matrix(1,0,0,1,-122.24000000000001,-76.4)"></rect></mask><mask id="c7801cde-0d47-4a76-860a-18a7335fb58f"><rect width="640" height="400" fill="white"></rect><rect width="348.05760000000004" height="48.49425965582999" fill="black" x="145.97119999999998" y="175.752870172085" id="transform-me" transform="matrix(1,0,0,1,-122.24000000000001,-76.4)"></rect></mask><mask id="24ef1506-c371-4151-9d65-b5af3bcc0c57"><rect width="640" height="400" fill="white"></rect><rect width="348.05760000000004" height="48.49425965582999" fill="black" x="145.97119999999998" y="175.752870172085" id="transform-me" transform="matrix(1,0,0,1,-122.24000000000001,-76.4)"></rect></mask><mask id="a2bd6ab7-7c83-44ee-b307-d43b7976c35a"><rect width="640" height="400" fill="white"></rect><rect width="348.05760000000004" height="48.49425965582999" fill="black" x="145.97119999999998" y="175.752870172085" id="transform-me" transform="matrix(1,0,0,1,-122.24000000000001,-76.4)"></rect></mask><mask id="35041cf1-b909-47d3-8b96-3c08e84e1d90"><rect width="640" height="400" fill="white"></rect><rect width="348.05760000000004" height="48.49425965582999" fill="black" x="145.97119999999998" y="175.752870172085" id="transform-me" transform="matrix(1,0,0,1,-122.24000000000001,-76.4)"></rect></mask><mask id="b0bd8d63-d4c7-4ad0-be5e-54cdb55c0ed8"><rect width="640" height="400" fill="white"></rect><rect width="348.05760000000004" height="48.49425965582999" fill="black" x="145.97119999999998" y="175.752870172085" id="transform-me" transform="matrix(1,0,0,1,-122.24000000000001,-76.4)"></rect></mask><mask id="d5c7b4de-5449-4511-9f62-b461c4bcbb17"><rect width="640" height="400" fill="white"></rect><rect width="348.05760000000004" height="48.49425965582999" fill="black" x="145.97119999999998" y="175.752870172085" id="transform-me" transform="matrix(1,0,0,1,-122.24000000000001,-76.4)"></rect></mask><mask id="fa7d93e9-4de1-4898-9e41-8a560cb487a7"><rect width="640" height="400" fill="white"></rect><rect width="348.05760000000004" height="48.49425965582999" fill="black" x="145.97119999999998" y="175.752870172085" id="transform-me" transform="matrix(1,0,0,1,-122.24000000000001,-76.4)"></rect></mask><mask id="5cd4813f-8bcc-427a-adef-3f546f56fec4"><rect width="640" height="400" fill="white"></rect><rect width="348.05760000000004" height="48.49425965582999" fill="black" x="145.97119999999998" y="175.752870172085" id="transform-me" transform="matrix(1,0,0,1,-122.24000000000001,-76.4)"></rect></mask><mask id="b149575f-d371-41f3-9d09-fd0a8f9fe97b"><rect width="640" height="400" fill="white"></rect><rect width="348.05760000000004" height="48.49425965582999" fill="black" x="145.97119999999998" y="175.752870172085" id="transform-me" transform="matrix(1,0,0,1,-122.24000000000001,-76.4)"></rect></mask><mask id="9f1d6d8f-70b2-4088-a5bd-57c72fbb8098"><rect width="640" height="400" fill="white"></rect><rect width="348.05760000000004" height="48.49425965582999" fill="black" x="145.97119999999998" y="175.752870172085" id="transform-me" transform="matrix(1,0,0,1,-122.24000000000001,-76.4)"></rect></mask><mask id="5784b2c0-466e-4538-ab3a-2316f71fc0a8"><rect width="640" height="400" fill="white"></rect><rect width="348.05760000000004" height="46.90987157074228" fill="black" x="145.97119999999998" y="176.54506421462887" id="transform-me" transform="matrix(1,0,0,1,-122.24000000000001,-76.4)"></rect></mask><mask id="6d209ba5-0311-4584-b8ff-6081fd64be9c"><rect width="640" height="400" fill="white"></rect><rect width="348.05760000000004" height="34.34561822908756" fill="black" x="145.97119999999998" y="182.82719088545622" id="transform-me" transform="matrix(1,0,0,1,-122.24000000000001,-76.4)"></rect></mask><mask id="af0c547e-9b84-4697-a509-5de2105a2b60"><rect width="640" height="400" fill="white"></rect><rect width="348.05760000000004" height="42.90236677246143" fill="black" x="145.97119999999998" y="178.54881661376928" id="transform-me" transform="matrix(1,0,0,1,-122.24000000000001,-76.4)"></rect></mask><mask id="acc6ea06-96af-48bb-8b66-a61437996064"><rect width="640" height="400" fill="white"></rect><rect width="348.05760000000004" height="34.34561822908756" fill="black" x="145.97119999999998" y="182.82719088545622" id="transform-me" transform="matrix(1,0,0,1,-122.24000000000001,-76.4)"></rect></mask><mask id="73d3641a-0a86-477b-b487-4ae1dc180526"><rect width="640" height="400" fill="white"></rect><rect width="348.05760000000004" height="139.43345110733057" fill="black" x="145.97119999999998" y="130.2832744463347" id="transform-me" transform="matrix(1,0,0,1,-122.24000000000001,-76.4)"></rect></mask><mask id="e5f44f19-4aec-4c34-8348-8c89eb4a442f"><rect width="640" height="400" fill="white"></rect><rect width="174.02880000000002" height="69.71672555366528" fill="black" x="232.98559999999998" y="165.14163722316735" id="transform-me" transform="matrix(1,0,0,1,-122.24000000000001,-76.4)"></rect></mask><mask id="0456b000-4fc3-46af-9015-498dba525e0a"><rect width="640" height="400" fill="white"></rect><rect width="174.02880000000002" height="69.71672555366528" fill="black" x="232.98559999999998" y="165.14163722316735" id="transform-me" transform="matrix(1,0,0,1,-122.24000000000001,-76.4)"></rect></mask><mask id="d9c36af9-70c2-449c-9c5e-473dc293199f"><rect width="640" height="400" fill="white"></rect><rect width="174.02880000000002" height="69.71672555366528" fill="black" x="232.98559999999998" y="165.14163722316735" id="transform-me" transform="matrix(1,0,0,1,-122.24000000000001,-76.4)"></rect></mask><mask id="c8f0f978-dd6b-45f2-9a18-316e3ff8a8ef"><rect width="640" height="400" fill="white"></rect><rect width="174.02880000000002" height="69.71672555366528" fill="black" x="232.98559999999998" y="165.14163722316735" id="transform-me" transform="matrix(1,0,0,1,-122.24000000000001,-76.4)"></rect></mask><mask id="de4621f6-e242-49d0-8734-19cb23459269"><rect width="640" height="400" fill="white"></rect><rect width="174.02880000000002" height="69.71672555366528" fill="black" x="232.98559999999998" y="165.14163722316735" id="transform-me" transform="matrix(1,0,0,1,-122.24000000000001,-76.4)"></rect></mask><mask id="9200991f-074b-4d1e-be2f-b57d0b91875c"><rect width="640" height="400" fill="white"></rect><rect width="174.02880000000002" height="69.71672555366528" fill="black" x="232.98559999999998" y="165.14163722316735" id="transform-me" transform="matrix(1,0,0,1,-122.24000000000001,-76.4)"></rect></mask><mask id="02e801b7-9534-46be-a110-1705de3155b7"><rect width="640" height="400" fill="white"></rect><rect width="174.02880000000002" height="69.71672555366528" fill="black" x="232.98559999999998" y="165.14163722316735" id="transform-me" transform="matrix(1,0,0,1,-122.24000000000001,-76.4)"></rect></mask><mask id="52ff83b6-0c31-4e4d-b067-a608e7f3059e"><rect width="640" height="400" fill="white"></rect><rect width="174.02880000000002" height="69.71672555366528" fill="black" x="232.98559999999998" y="165.14163722316735" id="transform-me" transform="matrix(1,0,0,1,-122.24000000000001,-76.4)"></rect></mask><mask id="91f3e073-66f1-43ee-9e1e-c54d0d139e1b"><rect width="640" height="400" fill="white"></rect><rect width="174.02880000000002" height="69.71672555366528" fill="black" x="232.98559999999998" y="165.14163722316735" id="transform-me" transform="matrix(1,0,0,1,-122.24000000000001,-76.4)"></rect></mask><mask id="a8ee1de8-b435-44af-8671-0f11487b0f52"><rect width="640" height="400" fill="white"></rect><rect width="174.02880000000002" height="69.71672555366528" fill="black" x="232.98559999999998" y="165.14163722316735" id="transform-me" transform="matrix(1,0,0,1,-122.24000000000001,-76.4)"></rect></mask><mask id="623b244e-8b99-4b19-ada7-5f83ffe5add7"><rect width="640" height="400" fill="white"></rect><rect width="174.02880000000002" height="69.71672555366528" fill="black" x="232.98559999999998" y="165.14163722316735" id="transform-me" transform="matrix(1,0,0,1,-122.24000000000001,-76.4)"></rect></mask><mask id="376db16d-c591-4737-80fe-9116772dc424"><rect width="640" height="400" fill="white"></rect><rect width="174.02880000000002" height="97.57599098709365" fill="black" x="232.98559999999998" y="151.21200450645318" id="transform-me" transform="matrix(1,0,0,1,-122.24000000000001,-76.4)"></rect></mask><mask id="7b209241-f8b4-47f2-8880-fc21a8b083a5"><rect width="640" height="400" fill="white"></rect><rect width="174.02880000000002" height="97.57599098709365" fill="black" x="232.98559999999998" y="151.21200450645318" id="transform-me" transform="matrix(1,0,0,1,-122.24000000000001,-76.4)"></rect></mask><mask id="5b12897e-3261-4262-95b7-9a803f14183d"><rect width="640" height="400" fill="white"></rect><rect width="174.02880000000002" height="97.57599098709365" fill="black" x="232.98559999999998" y="151.21200450645318" id="transform-me" transform="matrix(1,0,0,1,-122.24000000000001,-76.4)"></rect></mask><mask id="38924c51-86d4-4398-8a5f-598a3c4f3b21"><rect width="640" height="400" fill="white"></rect><rect width="174.02880000000002" height="97.57599098709365" fill="black" x="232.98559999999998" y="151.21200450645318" id="transform-me" transform="matrix(1,0,0,1,-122.24000000000001,-76.4)"></rect></mask><mask id="6f6db2d5-dfd6-4ef5-9ef0-aa88698efb76"><rect width="640" height="400" fill="white"></rect><rect width="174.02880000000002" height="97.57599098709365" fill="black" x="232.98559999999998" y="151.21200450645318" id="transform-me" transform="matrix(1,0,0,1,-122.24000000000001,-76.4)"></rect></mask><mask id="322ee1f0-c065-4d91-b942-54ce3fb38d0c"><rect width="640" height="400" fill="white"></rect><rect width="174.02880000000002" height="97.57599098709365" fill="black" x="232.98559999999998" y="151.21200450645318" id="transform-me" transform="matrix(1,0,0,1,-122.24000000000001,-76.4)"></rect></mask><mask id="0b2fd851-a0be-4d1d-8fa5-9119dfb95e0a"><rect width="640" height="400" fill="white"></rect><rect width="174.02880000000002" height="97.57599098709365" fill="black" x="232.98559999999998" y="151.21200450645318" id="transform-me" transform="matrix(1,0,0,1,-122.24000000000001,-76.4)"></rect></mask><mask id="eb19138c-1a12-43a8-b25b-f2aa115871bb"><rect width="640" height="400" fill="white"></rect><rect width="174.02880000000002" height="97.57599098709365" fill="black" x="232.98559999999998" y="151.21200450645318" id="transform-me" transform="matrix(1,0,0,1,-122.24000000000001,-76.4)"></rect></mask><mask id="38926792-310a-4ce0-a986-713fa09bbe9c"><rect width="640" height="400" fill="white"></rect><rect width="174.02880000000002" height="97.57599098709365" fill="black" x="232.98559999999998" y="151.21200450645318" id="transform-me" transform="matrix(1,0,0,1,-122.24000000000001,-76.4)"></rect></mask></defs></svg><rect width="395.52" height="247.2" fill="none" stroke="none" visibility="hidden"></rect></g></svg></g></svg>